<svg width="146" height="48" viewBox="0 0 146 48" fill="none" xmlns="http://www.w3.org/2000/svg">
<g clip-path="url(#clip0)">
<path d="M20.7898 0L0 11.989V35.9984L20.7898 48.0063L41.5795 35.9984V11.989L20.7898 0ZM37.4203 33.5931L20.7898 43.2019L4.15921 33.5931V14.3881L20.7898 4.80438L37.4203 14.3881V33.5931Z" fill="white"/>
<path d="M33.2047 25.7633V31.1565L20.7897 38.3161L8.39355 31.1565V25.7633L20.7897 32.9291L33.2047 25.7633Z" fill="#FFA14B"/>
<path d="M33.2047 16.831V22.2179L20.7897 29.3775L8.39355 22.2179V16.831L20.7897 23.9906L33.2047 16.831Z" fill="#FFA14B"/>
<path d="M12.1519 14.67L20.7897 19.656L29.4276 14.67L20.7897 9.68396L12.1519 14.67Z" fill="#FFA14B"/>
<path d="M53.5186 29.7472V20.5393C53.5186 20.1258 53.8067 19.8377 54.2201 19.8377H59.9265C63.5721 19.8377 65.5327 22.099 65.5327 25.1432C65.5327 28.1874 63.5721 30.4487 59.9265 30.4487H54.2201C53.8067 30.4424 53.5186 30.1856 53.5186 29.7472ZM55.9364 28.3315H59.8513C62.0249 28.3315 63.0083 26.8031 63.0083 25.1432C63.0083 23.4833 62.0186 21.9549 59.8513 21.9549H55.9364V28.3315Z" fill="white"/>
<path d="M74.4086 20.2636L79.1566 29.4841C79.2255 29.6156 79.2568 29.7284 79.2568 29.8536C79.2568 30.1794 79.0251 30.4424 78.6116 30.4424H77.4841C77.0958 30.4424 76.839 30.2984 76.6949 30.0165L75.8931 28.3691H70.0301L69.2284 30.0165C69.0843 30.3046 68.8275 30.4424 68.4391 30.4424H67.3116C66.8982 30.4424 66.6664 30.1856 66.6664 29.8536C66.6664 29.7221 66.6978 29.6093 66.7667 29.4841L71.5147 20.2636C71.6587 19.9755 71.9156 19.8377 72.3039 19.8377H73.6193C74.0077 19.8377 74.2708 19.9755 74.4086 20.2636ZM74.8408 26.2269L72.9679 22.3808L71.0825 26.2269H74.8408Z" fill="white"/>
<path d="M86.1094 29.7471C86.1094 30.1919 85.8526 30.4487 85.4078 30.4487H84.3931C83.9797 30.4487 83.6915 30.1919 83.6915 29.7471V21.9799H79.5323C79.0876 21.9799 78.8307 21.7231 78.8307 21.2784V20.533C78.8307 20.1196 79.0876 19.8314 79.5323 19.8314H90.2686C90.7133 19.8314 90.9701 20.1196 90.9701 20.533V21.2784C90.9701 21.7231 90.7133 21.9799 90.2686 21.9799H86.1094V29.7471Z" fill="white"/>
<path d="M101.65 29.7472V26.158H95.5303V29.7472C95.5303 30.1919 95.2735 30.4487 94.8288 30.4487H93.814C93.4006 30.4487 93.1125 30.1919 93.1125 29.7472V20.5393C93.1125 20.1258 93.4006 19.8377 93.814 19.8377H94.8288C95.2735 19.8377 95.5303 20.1258 95.5303 20.5393V24.0157H101.65V20.5393C101.65 20.1258 101.938 19.8377 102.352 19.8377H103.366C103.811 19.8377 104.068 20.1258 104.068 20.5393V29.7472C104.068 30.1919 103.811 30.4487 103.366 30.4487H102.352C101.932 30.4424 101.65 30.1856 101.65 29.7472Z" fill="white"/>
<path d="M119.308 25.1369C119.308 28.1812 116.708 30.6429 113.044 30.6429C109.38 30.6429 106.78 28.1812 106.78 25.1369C106.78 22.0927 109.386 19.631 113.044 19.631C116.702 19.631 119.308 22.0927 119.308 25.1369ZM109.298 25.1369C109.298 26.966 110.871 28.4255 113.044 28.4255C115.218 28.4255 116.79 26.966 116.79 25.1369C116.79 23.3079 115.218 21.8484 113.044 21.8484C110.871 21.8484 109.298 23.3079 109.298 25.1369Z" fill="white"/>
<path d="M126.944 28.5131C128.447 28.5131 129.863 28.0997 129.863 27.1664C129.863 26.3772 128.904 26.1642 126.774 26.0076C123.386 25.7758 121.481 25.0179 121.481 23.0636C121.481 21.0466 123.511 19.631 126.687 19.631C129.061 19.631 130.689 20.4014 131.335 20.9025C131.623 21.1155 131.779 21.3473 131.779 21.673C131.779 21.9048 131.692 22.1177 131.535 22.2994L131.165 22.7253C131.034 22.8819 130.865 22.9696 130.664 22.9696C130.495 22.9696 130.307 22.9007 130.151 22.8005C129.061 22.1303 127.946 21.7544 126.693 21.7544C125.321 21.7544 123.949 22.1866 123.949 22.9258C123.949 23.6273 125.208 23.7839 126.812 23.8967C130.113 24.1284 132.331 24.711 132.331 27.0161C132.331 29.3024 130.144 30.6366 126.9 30.6366C124.67 30.6366 122.753 30.0227 121.569 29.0518C121.325 28.8389 121.168 28.6509 121.168 28.3503C121.168 28.0621 121.268 27.8617 121.425 27.68L121.795 27.2478C121.926 27.0912 122.095 27.0036 122.283 27.0036C122.471 27.0036 122.653 27.0599 122.809 27.1727C124.1 28.0872 125.396 28.5131 126.944 28.5131Z" fill="white"/>
<path d="M140.599 29.7471C140.599 30.1919 140.342 30.4487 139.897 30.4487H138.882C138.469 30.4487 138.181 30.1919 138.181 29.7471V21.9799H134.022C133.577 21.9799 133.32 21.7231 133.32 21.2784V20.533C133.32 20.1196 133.577 19.8314 134.022 19.8314H144.758C145.203 19.8314 145.46 20.1196 145.46 20.533V21.2784C145.46 21.7231 145.203 21.9799 144.758 21.9799H140.599V29.7471Z" fill="white"/>
</g>
<defs>
<clipPath id="clip0">
<rect width="145.459" height="48" fill="white"/>
</clipPath>
</defs>
</svg>
