<svg width="20" height="20" viewBox="0 0 20 20" fill="none" xmlns="http://www.w3.org/2000/svg">
<path d="M18.333 3.94027C18.109 3.93983 17.7946 3.91637 17.5729 3.9509C17.2426 4.00934 16.9062 3.91283 16.5732 3.90265C16.5684 3.82119 16.6304 3.67554 16.6273 3.59453C16.5648 3.58656 16.5029 3.58213 16.4426 3.56797C16.3864 3.36565 16.4081 3.15227 16.4015 2.94465C16.3696 2.9442 16.3054 2.94288 16.2735 2.94199C16.2634 3.17839 16.2642 3.41479 16.2616 3.65119C16.1797 3.58435 16.1226 3.45464 16.0035 3.46393L12.7514 3.46349C12.5797 3.48208 12.4455 3.36477 12.307 3.28198C12.2937 3.17308 12.2764 3.06506 12.2552 2.95793C12.1578 3.09207 12.1489 3.26383 12.1131 3.42188C11.8545 3.47323 11.5991 3.61799 11.3357 3.64101C11.3127 3.48872 11.2883 3.33688 11.2715 3.18326C11.4109 3.11597 11.5677 3.07082 11.6832 2.96103C11.8191 2.56348 11.662 2.15 11.5721 1.76132C11.2936 1.55856 10.9851 1.37927 10.6641 1.25H10.2028C9.88585 1.35359 9.57021 1.52314 9.39003 1.82152C9.11113 2.25935 9.07262 2.82158 9.24792 3.30766C9.22313 3.32448 9.17355 3.35901 9.14876 3.37672C8.84684 3.13766 8.42938 3.25586 8.14029 3.45641C7.72062 3.77471 7.49661 4.29532 7.40364 4.80885C7.30758 5.24402 7.35052 5.6907 7.40187 6.12809C7.22834 6.17103 7.05037 6.17944 6.87374 6.19272C6.7998 6.19582 6.7064 6.22548 6.69843 6.31358C6.6453 6.65977 6.6847 7.0157 6.61343 7.35967C6.56739 7.58014 6.53773 7.80414 6.54525 8.02992C6.73871 8.07375 6.9335 8.1158 7.12784 8.15697C6.99503 8.21806 6.8423 8.26145 6.74757 8.38231C6.66434 8.94055 6.86267 9.49082 6.84496 10.0508C6.74757 10.1358 6.62582 10.2124 6.59395 10.3488C6.53419 10.5095 6.62937 10.6728 6.6059 10.8371C6.58333 11.0159 6.62361 11.1939 6.68072 11.3612C6.73429 11.5016 6.68957 11.6521 6.66832 11.7951C6.60546 12.1652 6.5333 12.5361 6.51781 12.912C6.50541 13.1103 6.57403 13.3148 6.51072 13.5074C6.30443 13.9802 5.95779 14.3747 5.77452 14.8594C5.6935 15.0825 5.73467 15.3375 5.61824 15.5491C5.49385 15.7873 5.32208 16.0224 5.33757 16.3079C5.32385 16.5014 5.47791 16.6749 5.41283 16.8684C5.31632 17.2628 5.21937 17.6577 5.11224 18.0499C5.03964 18.3107 5.02591 18.5962 5.10693 18.8565C5.21539 18.9136 5.33757 18.9327 5.45622 18.9584H5.91264C6.06006 18.9446 6.20615 18.9198 6.35356 18.899C6.39606 18.6945 6.34604 18.4949 6.27698 18.3045C6.1911 17.8246 6.26768 17.3146 6.50718 16.8914C6.58997 16.7816 6.74048 16.7391 6.79936 16.6081C6.88746 16.4208 6.92952 16.2158 7.01009 16.0255C7.12342 15.7546 7.27836 15.5 7.34919 15.2118C7.38859 15.0542 7.34344 14.8926 7.3576 14.7333C7.40055 14.5566 7.47979 14.3835 7.60994 14.256C7.78436 14.0927 7.85254 13.8425 8.04334 13.6942C8.1735 13.5968 8.17969 13.4224 8.20714 13.2732C8.23282 13.0758 8.29701 12.8868 8.36828 12.7022C8.46966 12.4467 8.53961 12.1665 8.73484 11.9651C8.85879 11.8354 8.92077 11.6627 8.96593 11.4909C9.0434 11.641 9.10538 11.8075 9.22977 11.9252C9.36922 11.9952 9.57242 11.9575 9.65698 12.1173C9.90002 12.4874 9.91817 12.6982 10.1621 13.0683C10.2785 13.298 10.5592 13.2418 10.7668 13.248C10.8863 13.4122 11.0196 13.4596 10.9798 13.6588C10.9722 13.8833 10.7828 14.0564 10.8093 14.2861C10.8301 14.7536 10.8647 15.2251 10.986 15.678C11.0285 15.8891 11.1382 16.083 11.1418 16.3026C11.1471 16.5567 11.0988 16.9729 11.0479 17.2239C10.924 17.5599 10.8394 17.9114 10.8235 18.2713C11.1166 18.4439 11.4548 18.2686 11.7611 18.3709C12.0971 18.482 12.4495 18.5219 12.8015 18.5152C13.0179 18.5112 13.2349 18.49 13.4478 18.4568C13.4491 18.3342 13.489 18.2009 13.4332 18.0862C13.2561 17.8768 12.9599 17.876 12.7448 17.7312C12.5708 17.5745 12.4287 17.3832 12.2835 17.1995C12.1609 17.0552 12.3251 16.8555 12.3202 16.6736C12.322 16.3974 12.3207 16.1127 12.4225 15.8524C12.4978 15.6452 12.4725 15.4212 12.4318 15.21C12.3769 14.9502 12.4699 14.6938 12.4938 14.4366C12.5283 14.086 12.5531 13.7345 12.5752 13.383C12.5912 13.1825 12.5226 12.9912 12.4739 12.8004C12.4451 12.6207 12.2742 12.5193 12.2242 12.3489C11.9311 11.5405 11.6628 10.8751 11.0856 10.2306C10.8638 10.0097 10.7518 9.64045 10.8863 9.3434C11.0112 9.37749 11.1351 9.41512 11.2618 9.44699C11.3968 9.26505 11.5287 9.06406 11.5504 8.83032C11.5725 8.58949 11.5792 8.34733 11.6004 8.10651C11.6102 7.84399 11.6668 7.5735 11.5991 7.31585C11.5548 7.13965 11.3808 7.06351 11.2463 6.97408C11.2786 6.85146 11.3113 6.72972 11.3401 6.6062C11.7841 6.82268 12.1958 7.13655 12.693 7.21358C12.8263 7.23395 12.9688 7.2977 13.1012 7.2366C13.2836 7.14895 13.4243 6.99578 13.5837 6.87271C13.8723 6.6456 13.8325 6.23124 13.933 5.90718C14.0313 5.86911 14.1313 5.83414 14.2309 5.79695C14.1654 5.50964 14.0512 5.21923 14.0902 4.91952C14.2097 4.75617 14.3606 4.65833 14.485 4.49852C14.574 4.37722 14.7281 4.34579 14.8684 4.34933C15.2912 4.34711 15.7144 4.35464 16.1376 4.34977C16.1514 4.28824 16.1013 4.41131 16.1164 4.34977C16.5564 4.375 16.9969 4.27938 17.4378 4.33428C17.7128 4.38164 18.082 4.36217 18.3582 4.3418C18.3436 4.26035 18.3365 4.02129 18.333 3.94027ZM12.8891 5.48839C12.8054 5.33876 12.6802 5.19798 12.6554 5.02533C12.6686 5.00718 12.6961 4.9722 12.7094 4.9545C12.8891 4.93546 13.0702 4.94741 13.2504 4.95627C13.1339 5.136 13.0109 5.3122 12.8891 5.48839ZM12.863 4.90934C12.9825 4.84825 13.021 4.72208 13.0365 4.59503C13.1326 4.59016 13.2291 4.58706 13.3265 4.58484C13.33 4.67825 13.3331 4.77078 13.3367 4.86419C13.1809 4.89916 13.021 4.89872 12.863 4.90934Z" fill="#343746"/>
</svg>
