<svg width="20" height="20" viewBox="0 0 20 20" fill="none" xmlns="http://www.w3.org/2000/svg">
<path d="M12.0319 1.99284C15.576 2.89794 18.1968 6.11189 18.1968 9.93807C18.1968 10.0254 18.195 10.1123 18.1921 10.1989L12.6769 9.41446C12.5154 8.58338 11.9771 7.88746 11.247 7.51061L12.0319 1.99284ZM7.56947 8.68781C7.94628 7.95768 8.64225 7.41948 9.47328 7.258L10.2578 1.74266C10.1712 1.73995 10.0843 1.73812 9.99698 1.73812C6.1709 1.73812 2.95698 4.35871 2.05184 7.90287L7.56947 8.68781ZM8.74672 12.3656C8.01663 11.9887 7.47839 11.2927 7.31696 10.4617L1.80166 9.67716C1.79895 9.76384 1.79712 9.85075 1.79712 9.93807C1.79712 13.7641 4.41771 16.978 7.96183 17.8832L8.74672 12.3656ZM12.4244 11.1883C12.0475 11.9184 11.3516 12.4566 10.5205 12.6181L9.73602 18.1335C9.8227 18.1362 9.90961 18.1381 9.99689 18.1381C13.823 18.1381 17.037 15.5174 17.942 11.9733L12.4244 11.1883Z" fill="#D9DADF"/>
</svg>
