<svg width="21" height="20" viewBox="0 0 21 20" fill="none" xmlns="http://www.w3.org/2000/svg">
<path d="M2.00014 10.3589C2.01538 10.1063 1.97762 9.81118 2.02542 9.51749C2.10579 9.02376 2.36788 8.66404 2.81227 8.43962C2.92164 8.38436 2.98889 8.32724 3.01384 8.19081C3.20715 7.13052 3.6329 6.16704 4.26192 5.29374C4.33419 5.19344 4.39171 5.12457 4.29911 4.99438C4.18122 4.82886 4.2654 4.67646 4.38823 4.53881C5.27513 3.54503 6.34286 2.80857 7.61298 2.41644C10.6427 1.48141 13.3134 2.12121 15.5945 4.3331C15.8049 4.53719 16.0861 4.74282 15.8173 5.10157C15.7724 5.1616 15.8518 5.21361 15.8862 5.26061C16.54 6.15189 16.9718 7.13935 17.1643 8.22832C17.1856 8.34863 17.2604 8.38671 17.3482 8.43119C17.896 8.70876 18.1653 9.16757 18.1677 9.76921C18.1698 10.3129 18.2236 10.8602 18.1331 11.4006C18.0027 12.1785 17.2112 12.7206 16.4445 12.5619C16.2125 12.5139 16.1509 12.3352 16.152 12.1166C16.1562 11.2245 16.1741 10.3317 16.1527 9.44004C16.0951 7.04204 15.0121 5.2363 12.9157 4.08357C9.4072 2.15451 4.90714 4.29284 4.1348 8.22532C4.00056 8.90896 4.02373 9.59535 4.03142 10.2843C4.03847 10.9252 4.03086 11.5665 4.01514 12.2071C4.00963 12.4319 3.87733 12.5589 3.63727 12.57C2.65955 12.6156 2.00201 11.9945 2.00014 11.0167C1.99982 10.8112 2.00014 10.6056 2.00014 10.3589Z" fill="#E0E0E0"/>
<path d="M11.9087 13.6803C12.3179 13.7343 12.7257 13.8003 13.1378 13.8242C13.6908 13.8563 14.109 13.6789 14.4184 13.3457C14.8071 12.9272 14.9852 12.4406 14.955 11.8949C14.9247 11.3464 14.4435 11.022 13.7916 11.1348C13.2098 11.2356 12.6942 11.4625 12.1722 11.671C11.7106 11.8554 11.2779 12.077 10.939 12.3916C10.4625 12.8339 10.7329 13.4199 11.4936 13.604C11.6297 13.6369 11.7702 13.6552 11.9087 13.6803Z" fill="#E0E0E0"/>
<path d="M9.63725 12.5373H9.63733C9.63725 12.537 9.63709 12.5369 9.63701 12.5367C9.59431 12.4066 9.52172 12.288 9.43438 12.1766C9.13356 11.7076 8.71535 11.2848 8.29211 10.9302C8.06995 10.7371 7.83354 10.5612 7.58879 10.3962C7.04426 10.0205 6.61754 9.80191 6.61754 9.80191L6.61608 9.80264C5.9685 9.47897 5.37788 9.79535 5.22208 10.5343C5.04724 11.3633 5.18732 12.1572 5.63722 12.8807C5.94687 13.3786 6.4252 13.6146 6.99768 13.6683C7.35562 13.7019 7.71501 13.7212 8.07376 13.7469C8.36583 13.7537 8.65709 13.7743 8.94098 13.6778C9.31496 13.551 9.60355 13.3227 9.66788 12.9202C9.69024 12.7809 9.67574 12.6545 9.63725 12.5373Z" fill="#E0E0E0"/>
<path d="M16.5697 14.4473C16.5634 14.1227 16.4196 13.5961 16.2061 13.428C16.1145 13.356 15.9794 13.3966 15.9444 13.5077C15.8991 13.6513 15.8245 13.8567 15.711 14.098H15.7114C15.4587 14.696 15.0873 15.1858 14.6533 15.5873C14.0865 16.1118 13.4126 16.4853 12.7538 16.7512C12.7536 16.7512 12.7535 16.7512 12.7532 16.7514C12.5894 16.8174 12.4266 16.8769 12.2666 16.9303C12.2653 16.9308 12.2638 16.9313 12.2625 16.9316C12.1561 16.9671 12.0511 16.9999 11.9478 17.0302C11.9471 17.0304 11.9464 17.0307 11.9456 17.0308C11.8957 17.0455 11.8462 17.0595 11.7971 17.0731C11.7945 17.0738 11.7917 17.0746 11.7891 17.0753C11.6896 17.1026 11.5922 17.1277 11.4975 17.1507C11.4935 17.1516 11.4898 17.1524 11.4859 17.1534C11.4423 17.164 11.3991 17.1742 11.3565 17.1837C11.3528 17.1845 11.349 17.1855 11.3453 17.1864C11.2548 17.2067 11.1672 17.2254 11.0827 17.2421C11.077 17.2432 11.0713 17.2443 11.0656 17.2455C11.0284 17.2528 10.9918 17.2597 10.956 17.2664C10.9515 17.2673 10.9468 17.2681 10.9422 17.269C10.8627 17.2835 10.7869 17.2967 10.7147 17.3082C10.7084 17.3092 10.7024 17.3102 10.6962 17.3111C10.6648 17.3161 10.6341 17.3208 10.6044 17.3253C10.6006 17.3258 10.5966 17.3265 10.5928 17.327C10.5585 17.3321 10.5251 17.3368 10.4931 17.3413C10.493 17.3413 10.4928 17.3413 10.4928 17.3413C10.4618 17.3456 10.4323 17.3495 10.4036 17.3531C10.3989 17.3537 10.3943 17.3543 10.3896 17.3548C10.3619 17.3583 10.3351 17.3616 10.3096 17.3646C10.3095 17.3646 10.3093 17.3646 10.3091 17.3646C10.0967 17.3894 9.96444 17.397 9.94362 17.3981C9.94167 17.3982 9.94054 17.3982 9.94054 17.3982L9.94078 17.3984C7.18197 17.6873 10.6411 18.2921 13.2423 17.8341L13.2422 17.8344C13.2482 17.8334 13.2537 17.8321 13.2597 17.8311C13.3208 17.8201 13.3814 17.8088 13.4416 17.7967C13.4953 17.7859 13.5479 17.7748 13.5999 17.763C13.6402 17.754 13.6802 17.7447 13.7201 17.7351C13.7446 17.729 13.7698 17.7232 13.7939 17.717C14.1405 17.6289 14.4587 17.5171 14.7294 17.378C16.3392 16.5991 16.4949 15.298 16.4949 15.298C16.5484 15.0514 16.5761 14.7711 16.5697 14.4473Z" fill="#E0E0E0"/>
</svg>
