<svg width="24" height="25" viewBox="0 0 24 25" fill="none" xmlns="http://www.w3.org/2000/svg">
<path d="M6.34082 12.5495L6.32431 12.4339C6.17019 12.0266 6.01607 11.6579 5.86196 11.3276C5.71885 10.9974 5.59775 10.6231 5.49868 10.2048C5.46565 10.0727 5.41061 9.95707 5.33355 9.85799C5.25649 9.74791 5.17944 9.64333 5.10238 9.54425C5.02532 9.43417 4.95376 9.32959 4.88771 9.23052C4.82166 9.12043 4.77763 9.00484 4.75561 8.88375C4.63452 8.32232 4.50242 7.78291 4.35931 7.26552C4.22721 6.74813 4.06209 6.22523 3.86394 5.69683L3.46764 4.85469L3.23646 4.02906C3.11537 3.8199 2.96125 3.63826 2.77411 3.48415C2.59797 3.33003 2.41634 3.18692 2.22919 3.05482C2.04205 2.91171 1.86592 2.77411 1.70079 2.64201C1.53567 2.50991 1.40907 2.3668 1.321 2.21268C1.19991 2.21268 1.06231 2.20718 0.90819 2.19617C0.765082 2.17415 0.621973 2.13562 0.478864 2.08058C0.346764 2.02554 0.231176 1.95399 0.1321 1.86592C0.0440335 1.76684 0 1.64025 0 1.48613C0 1.321 0.0495376 1.19441 0.148613 1.10634C0.247688 1.01827 0.363276 0.97424 0.495376 0.97424L1.46962 1.08983C1.52466 1.08983 1.5797 1.06231 1.63474 1.00727C1.68978 0.952224 1.76684 0.924703 1.86592 0.924703C1.95399 0.924703 2.03104 0.886173 2.09709 0.809114H3.23646L5.11889 0.97424C5.49318 0.97424 5.83443 0.930207 6.14267 0.84214C6.46191 0.754073 6.79767 0.682519 7.14993 0.627477C7.3701 0.616469 7.55724 0.60546 7.71136 0.594452C7.87649 0.583443 8.0196 0.577939 8.14069 0.577939C8.27279 0.577939 8.4214 0.566931 8.58653 0.544914C8.76266 0.511889 8.9498 0.473359 9.14795 0.429326C9.18098 0.429326 9.27455 0.440335 9.42867 0.462351C9.58278 0.47336 9.7424 0.500881 9.90753 0.544914C10.0727 0.588948 10.2213 0.654998 10.3534 0.743064C10.4855 0.820123 10.5515 0.919199 10.5515 1.04029L10.469 1.94848C10.469 2.01453 10.4194 2.08609 10.3203 2.16314C10.2323 2.22919 10.1222 2.29524 9.99009 2.36129C9.869 2.42734 9.7424 2.48239 9.6103 2.52642C9.48921 2.55944 9.40114 2.57596 9.3461 2.57596L8.80119 2.46037C8.58102 2.46037 8.39938 2.47138 8.25627 2.4934C8.12417 2.5044 7.94254 2.53192 7.71136 2.57596C7.61229 2.61999 7.52422 2.68604 7.44716 2.77411C7.38111 2.86218 7.34808 2.96675 7.34808 3.08785C7.34808 3.34104 7.39762 3.57772 7.4967 3.79789C7.59577 4.01805 7.66733 4.24923 7.71136 4.49141L7.81044 5.82893C7.83245 6.01607 7.87098 6.20322 7.92602 6.39036C7.99207 6.56649 8.06363 6.74262 8.14069 6.91876C8.21775 7.09489 8.2948 7.27103 8.37186 7.44716C8.44892 7.62329 8.50947 7.79943 8.5535 7.97556V8.80119C8.5535 8.84522 8.59753 8.92228 8.6856 9.03236C8.78468 9.14245 8.84522 9.21951 8.86724 9.26354C8.98833 9.48371 9.08741 9.7369 9.16446 10.0231C9.24152 10.2983 9.31308 10.5845 9.37913 10.8818C9.44518 11.179 9.51123 11.4762 9.57728 11.7734C9.65434 12.0597 9.7424 12.3184 9.84148 12.5495C9.95156 12.8468 10.0947 13.1605 10.2708 13.4908C10.4579 13.821 10.59 14.1347 10.6671 14.432L10.7497 15.3732C10.8157 15.4833 10.8818 15.6429 10.9478 15.852C11.0249 16.0612 11.1019 16.2704 11.179 16.4795C11.2671 16.6777 11.3551 16.8538 11.4432 17.0079C11.5423 17.162 11.6524 17.2391 11.7734 17.2391C11.9606 17.2391 12.1092 17.1896 12.2193 17.0905C12.3404 16.9804 12.4615 16.8648 12.5826 16.7437L12.7147 16.5786C12.7697 16.4575 12.7972 16.3529 12.7972 16.2649C12.7862 16.1438 12.7807 16.0447 12.7807 15.9676C12.7807 15.8796 12.7807 15.8135 12.7807 15.7695C12.7807 15.6924 12.7862 15.6484 12.7972 15.6374L13.3421 14.7457C13.3972 14.6026 13.4577 14.432 13.5238 14.2338C13.6008 14.0357 13.6724 13.832 13.7384 13.6229C13.8155 13.4137 13.8871 13.2045 13.9531 12.9954C14.0302 12.7752 14.0962 12.5771 14.1513 12.4009C14.2173 12.2578 14.2779 12.0872 14.3329 11.889C14.3879 11.6799 14.4485 11.4707 14.5145 11.2616C14.5806 11.0524 14.6576 10.8542 14.7457 10.6671C14.8338 10.48 14.9384 10.3258 15.0594 10.2048C15.0264 10.1827 15.0099 10.1057 15.0099 9.97358V9.18098C15.0099 9.12594 15.0099 9.0764 15.0099 9.03236C15.0209 8.98833 15.0374 8.93879 15.0594 8.88375C15.0594 8.86174 15.0649 8.8122 15.076 8.73514C15.098 8.65808 15.12 8.57552 15.142 8.48745C15.175 8.38838 15.2081 8.2948 15.2411 8.20674C15.2741 8.10766 15.3016 8.0306 15.3236 7.97556L15.5218 7.57926V6.77015C15.5768 6.72611 15.6484 6.66557 15.7365 6.58851C15.8245 6.50044 15.8686 6.42888 15.8686 6.37384C16.0557 5.91149 16.2098 5.38309 16.3309 4.78864C16.452 4.19419 16.5126 3.61625 16.5126 3.05482V2.74108C16.4135 2.58697 16.3034 2.44386 16.1823 2.31176C16.0612 2.17966 15.8851 2.08608 15.6539 2.03104C15.4888 1.99802 15.2741 1.98151 15.0099 1.98151C14.8338 1.98151 14.6521 1.976 14.465 1.96499C14.2779 1.94298 14.1072 1.90445 13.9531 1.84941C13.799 1.78335 13.6724 1.69529 13.5733 1.5852C13.4742 1.46411 13.4247 1.29899 13.4247 1.08983C13.4247 0.924703 13.4522 0.792602 13.5073 0.693527C13.5733 0.583443 13.6614 0.500881 13.7715 0.445839C13.8815 0.379789 14.0081 0.341259 14.1513 0.330251C14.2944 0.308234 14.443 0.297225 14.5971 0.297225L17.5198 0.660502C18.0042 0.660502 18.4886 0.544914 18.9729 0.313739C19.2261 0.247688 19.4628 0.181638 19.683 0.115587C19.9031 0.0385289 20.1123 0 20.3104 0C20.5967 0.1321 20.8664 0.220167 21.1196 0.264201C21.3838 0.297226 21.659 0.313739 21.9452 0.313739H22.2919C22.358 0.313739 22.4185 0.313739 22.4736 0.313739C22.5396 0.313739 22.6112 0.308234 22.6882 0.297225C22.7433 0.319242 22.7928 0.346763 22.8369 0.379788C22.8809 0.401805 22.9194 0.423822 22.9524 0.445839C22.9855 0.467856 23.002 0.489872 23.002 0.511889C23.046 0.599956 23.079 0.693527 23.1011 0.792602C23.1341 0.891677 23.1506 0.990753 23.1506 1.08983C23.1506 1.33201 23.1011 1.53016 23.002 1.68428C22.9579 1.80537 22.8809 1.92096 22.7708 2.03104C22.6607 2.13012 22.5782 2.19066 22.5231 2.21268H21.5819L21.1691 2.11361C21.1251 2.11361 21.059 2.12461 20.9709 2.14663C20.8939 2.15764 20.8058 2.17415 20.7067 2.19617C20.6077 2.21819 20.5086 2.2402 20.4095 2.26222C20.3214 2.27323 20.2554 2.28424 20.2114 2.29524C19.9582 2.5044 19.7435 2.74108 19.5674 3.00528C19.4022 3.26948 19.2591 3.5502 19.138 3.84742C19.028 4.13364 18.9344 4.43087 18.8573 4.7391C18.7913 5.03633 18.7362 5.33355 18.6922 5.63078C18.6922 5.70784 18.6647 5.77389 18.6096 5.82893L18.1143 6.52246C18.0042 6.63254 17.9491 6.78115 17.9491 6.9683C17.9491 7.04535 17.9491 7.12792 17.9491 7.21598C17.9491 7.29304 17.9381 7.3756 17.9161 7.46367C17.8831 7.54073 17.8391 7.60678 17.784 7.66182C17.729 7.70586 17.6684 7.74989 17.6024 7.79392C17.5363 7.83796 17.4758 7.88199 17.4207 7.92602C17.3657 7.97006 17.3217 8.0251 17.2886 8.09115L17.3217 8.6856C17.3217 8.97182 17.2886 9.24152 17.2226 9.49472C17.1675 9.74791 17.0354 9.94606 16.8263 10.0892L16.463 11.5258C16.2318 11.7459 16.0172 12.0321 15.819 12.3844C15.6319 12.7257 15.4668 13.0559 15.3236 13.3752C15.2686 13.5073 15.2356 13.6394 15.2246 13.7715C15.2136 13.8926 15.1971 14.0137 15.175 14.1347C15.164 14.2558 15.131 14.3824 15.076 14.5145C15.0319 14.6356 14.9439 14.7622 14.8118 14.8943C14.8118 15.1035 14.7842 15.3016 14.7292 15.4888C14.6852 15.6759 14.6246 15.8631 14.5476 16.0502C14.4815 16.2263 14.3989 16.4135 14.2999 16.6116C14.2008 16.7988 14.1017 16.9969 14.0026 17.2061C13.9036 17.4483 13.8045 17.718 13.7054 18.0152C13.6063 18.3124 13.4963 18.5766 13.3752 18.8078L13.111 19.1711C13.0229 19.2591 12.9679 19.3472 12.9458 19.4353C12.9458 19.5013 12.9513 19.5784 12.9624 19.6664C12.9734 19.7545 12.9789 19.8481 12.9789 19.9472C12.9789 20.0903 12.9734 20.2004 12.9624 20.2774C12.9513 20.3545 12.9458 20.415 12.9458 20.459C12.9458 20.4921 12.9348 20.5471 12.9128 20.6242C12.8908 20.6902 12.8633 20.7618 12.8303 20.8388C12.8082 20.9159 12.7862 20.9874 12.7642 21.0535C12.7422 21.1085 12.7257 21.1471 12.7147 21.1691L12.5826 21.4333C12.5495 21.5324 12.511 21.703 12.467 21.9452C12.4229 22.1764 12.3679 22.424 12.3018 22.6882C12.2468 22.9414 12.1863 23.1836 12.1202 23.4148C12.0652 23.646 12.0156 23.8056 11.9716 23.8937C11.8505 24.279 11.6799 24.5597 11.4597 24.7358C11.2506 24.9119 10.9478 25 10.5515 25C10.4414 25 10.3424 24.945 10.2543 24.8349C10.1662 24.7358 10.0837 24.6147 10.0066 24.4716C9.94055 24.3285 9.88001 24.1854 9.82497 24.0423C9.78093 23.8992 9.74791 23.7891 9.72589 23.712C9.69287 23.635 9.64333 23.4698 9.57728 23.2166C9.52224 22.9635 9.46169 22.6882 9.39564 22.391C9.3406 22.0938 9.28005 21.8076 9.214 21.5324C9.15896 21.2572 9.10942 21.0535 9.06539 20.9214C8.9443 20.371 8.80119 19.8536 8.63606 19.3692C8.47094 18.8738 8.33884 18.362 8.23976 17.8336C8.21775 17.7235 8.1627 17.6354 8.07464 17.5694C7.99758 17.5033 7.90951 17.4428 7.81044 17.3877C7.72237 17.3217 7.6343 17.2501 7.54624 17.173C7.46918 17.096 7.41413 16.9914 7.38111 16.8593L7.14993 15.3732C7.12792 15.3181 7.09489 15.2246 7.05086 15.0925C7.00683 14.9494 6.96279 14.8063 6.91876 14.6631C6.87472 14.52 6.83619 14.3879 6.80317 14.2668C6.77014 14.1458 6.75363 14.0687 6.75363 14.0357C6.69859 13.8045 6.60502 13.5898 6.47292 13.3917C6.35183 13.1935 6.29128 12.9789 6.29128 12.7477L6.34082 12.5495Z" fill="#343746"/>
</svg>
